<svg width="1200" height="675" viewBox="0 0 1200 675" fill="none" xmlns="http://www.w3.org/2000/svg">
<g clip-path="url(#clip0_256_10)">
<rect width="1200" height="675" fill="url(#paint0_linear_256_10)"/>
<path d="M73.13 336.93C71.03 336.93 69.35 336.58 68.09 335.88C67.53 335.74 67.25 335.46 67.25 335.04C67.25 334.76 67.39 334.55 67.67 334.41C68.09 334.27 68.58 334.34 69.14 334.62C69.98 334.9 70.61 335.04 71.03 335.04C72.85 335.04 74.74 334.34 76.7 332.94C78.66 331.54 80.34 329.65 81.74 327.27C83.28 324.89 84.05 322.23 84.05 319.29C84.05 317.61 83.7 315.72 83 313.62C82.3 311.66 81.32 309.77 80.06 307.95C78.8 305.99 77.75 304.1 76.91 302.28C75.79 299.9 74.95 297.73 74.39 295.77C73.97 293.81 73.76 291.92 73.76 290.1C73.76 285.62 75.16 282.12 77.96 279.6C80.76 276.94 84.33 274.91 88.67 273.51C93.15 271.97 97.84 270.85 102.74 270.15C107.64 269.45 112.12 268.82 116.18 268.26C119.68 267.84 123.88 267.28 128.78 266.58C133.82 265.74 139.07 264.9 144.53 264.06C149.99 263.08 155.17 262.03 160.07 260.91C165.11 259.79 169.38 258.67 172.88 257.55C176.52 256.43 178.83 255.31 179.81 254.19C180.09 253.91 180.37 253.77 180.65 253.77C181.07 253.77 181.28 253.98 181.28 254.4C181.42 254.82 181.28 255.24 180.86 255.66C179.32 257.34 176.1 259.02 171.2 260.7C166.3 262.38 160.49 263.99 153.77 265.53C147.19 267.07 140.33 268.54 133.19 269.94C126.05 271.34 119.33 272.67 113.03 273.93C106.73 275.19 101.62 276.38 97.7 277.5C84.96 281 78.59 286.81 78.59 294.93C78.59 298.15 79.5 301.3 81.32 304.38C83.14 307.32 84.89 310.26 86.57 313.2C88.39 316.14 89.3 319.15 89.3 322.23C89.3 326.57 87.48 330.14 83.84 332.94C80.34 335.6 76.77 336.93 73.13 336.93ZM70.61 374.94C64.73 374.94 59.83 373.61 55.91 370.95C51.99 368.15 49.05 364.58 47.09 360.24C45.13 355.9 44.15 351.21 44.15 346.17C44.15 342.81 44.57 339.59 45.41 336.51C45.83 333.71 46.81 332.31 48.35 332.31C48.77 332.31 48.98 332.59 48.98 333.15C48.98 333.71 48.77 334.48 48.35 335.46C48.07 336.3 48 336.86 48.14 337.14C48.56 347.22 50.94 354.64 55.28 359.4C59.62 364.02 64.94 366.33 71.24 366.33C80.2 366.33 89.65 362.34 99.59 354.36C103.23 351.42 106.87 347.92 110.51 343.86C114.29 339.66 118 335.18 121.64 330.42C119.96 330.7 118.28 331.05 116.6 331.47C115.06 331.89 113.52 332.31 111.98 332.73C110.02 333.29 108.2 333.78 106.52 334.2C104.84 334.62 103.37 334.9 102.11 335.04C101.55 335.18 100.99 335.25 100.43 335.25C99.87 335.25 99.38 335.25 98.96 335.25C97.42 335.25 96.58 334.97 96.44 334.41C96.3 333.85 96.44 333.29 96.86 332.73C97.7 331.61 98.89 330.56 100.43 329.58C102.11 328.46 103.65 327.83 105.05 327.69C107.99 327.27 111.28 326.78 114.92 326.22C118.56 325.52 122.34 324.89 126.26 324.33C131.58 317.05 136.76 309.7 141.8 302.28C146.84 294.86 151.46 288.28 155.66 282.54C157.2 280.58 158.6 278.76 159.86 277.08C161.26 275.4 162.66 273.72 164.06 272.04C165.88 269.8 168.4 268.4 171.62 267.84C172.32 267 173.72 265.6 175.82 263.64C177.92 261.54 179.81 260.14 181.49 259.44C182.05 259.16 182.4 259.02 182.54 259.02C183.24 259.02 183.59 259.37 183.59 260.07C183.73 260.63 183.66 261.05 183.38 261.33C182.12 262.31 180.79 263.78 179.39 265.74C177.99 267.56 176.87 269.38 176.03 271.2C172.25 279.46 168.75 287.93 165.53 296.61C162.31 305.29 159.3 314.04 156.5 322.86C159.58 323 161.89 323.84 163.43 325.38C165.11 326.78 165.95 328.25 165.95 329.79C165.95 331.75 165.32 332.87 164.06 333.15C162.94 333.29 162.66 332.8 163.22 331.68C163.5 331.26 163.64 330.7 163.64 330C163.64 328.88 162.87 327.97 161.33 327.27C159.79 326.57 157.83 326.15 155.45 326.01C154.47 329.09 153.35 333.01 152.09 337.77C150.97 342.53 150.06 347.08 149.36 351.42C149.22 352.68 149.08 353.87 148.94 354.99C148.94 355.97 148.94 356.88 148.94 357.72C148.94 360.94 149.43 363.25 150.41 364.65C151.39 366.05 152.65 366.75 154.19 366.75C156.15 366.75 158.32 365.98 160.7 364.44C163.22 362.76 165.67 360.8 168.05 358.56C170.43 356.32 172.39 354.22 173.93 352.26C174.21 351.98 174.98 351 176.24 349.32C177.5 347.64 178.9 345.89 180.44 344.07C181.98 342.11 183.17 340.57 184.01 339.45C184.15 339.17 184.5 339.17 185.06 339.45C185.76 339.59 185.97 339.8 185.69 340.08C182.33 344.84 178.76 349.53 174.98 354.15C173.16 356.25 170.71 358.91 167.63 362.13C164.69 365.35 161.47 368.22 157.97 370.74C154.47 373.12 151.04 374.31 147.68 374.31C147.26 374.31 146.84 374.24 146.42 374.1C146 374.1 145.58 374.03 145.16 373.89C142.92 373.33 141.31 371.93 140.33 369.69C139.35 367.45 138.86 364.79 138.86 361.71C138.86 360.17 139 358.49 139.28 356.67C139.56 354.85 139.91 353.03 140.33 351.21C141.31 347.43 142.57 343.37 144.11 339.03C145.65 334.55 147.26 330.21 148.94 326.01C148.52 326.01 148.1 326.08 147.68 326.22C147.4 326.22 147.05 326.22 146.63 326.22C143.13 326.5 139.63 326.99 136.13 327.69C132.63 328.25 129.83 328.74 127.73 329.16C122.41 336.86 116.74 344.21 110.72 351.21C104.7 358.21 98.33 363.95 91.61 368.43C85.03 372.77 78.03 374.94 70.61 374.94ZM131.51 323.49C135.01 323.21 138.3 323 141.38 322.86C144.6 322.72 147.61 322.65 150.41 322.65C151.53 320.13 152.51 317.82 153.35 315.72C154.33 313.48 155.1 311.52 155.66 309.84C158.04 303.68 160.21 297.94 162.17 292.62C164.13 287.3 165.11 284.15 165.11 283.17C165.11 282.75 164.27 282.68 162.59 282.96C160.91 283.24 158.88 284.78 156.5 287.58C152.72 292.06 148.73 297.52 144.53 303.96C140.33 310.26 135.99 316.77 131.51 323.49ZM238.992 386.49C233.532 386.49 230.802 382.71 230.802 375.15C230.802 372.63 231.082 369.69 231.642 366.33C232.202 362.83 233.112 358.84 234.372 354.36C234.792 352.54 235.632 349.74 236.892 345.96C238.292 342.04 239.482 338.75 240.462 336.09C237.522 338.33 234.162 341.2 230.382 344.7C226.602 348.06 223.032 351.42 219.672 354.78C216.452 358.14 214.002 360.8 212.322 362.76C211.202 364.3 210.642 364.79 210.642 364.23L208.332 365.91C207.352 366.47 206.442 366.75 205.602 366.75C204.902 366.75 204.552 366.4 204.552 365.7C204.552 364.58 204.762 362.76 205.182 360.24C205.742 357.72 206.372 354.85 207.072 351.63C207.772 348.41 208.542 345.4 209.382 342.6C210.362 339.66 211.272 337.35 212.112 335.67C205.952 340.57 200.422 345.61 195.522 350.79C190.762 355.97 187.402 361.92 185.442 368.64C185.302 369.2 184.742 369.69 183.762 370.11C182.922 370.39 181.942 370.67 180.822 370.95C179.842 371.09 178.792 371.37 177.672 371.79C176.552 372.07 175.502 372.42 174.522 372.84C174.522 372.56 174.662 372.14 174.942 371.58C175.222 371.02 175.432 370.6 175.572 370.32C175.992 369.48 176.412 368.36 176.832 366.96C177.392 365.42 178.162 363.74 179.142 361.92C180.402 359.54 181.592 356.88 182.712 353.94C183.972 351 185.022 348.48 185.862 346.38C186.702 344.14 187.122 343.02 187.122 343.02L189.642 337.35C189.922 336.37 190.202 335.46 190.482 334.62C190.902 333.78 191.182 332.94 191.322 332.1C191.462 331.54 191.532 330.84 191.532 330C191.532 328.6 191.182 327.48 190.482 326.64C189.922 325.8 188.662 325.38 186.702 325.38C185.162 325.38 183.482 325.73 181.662 326.43C179.982 327.13 178.372 327.83 176.832 328.53C176.972 328.25 177.112 327.83 177.252 327.27C177.532 326.71 177.742 326.36 177.882 326.22C178.582 325.94 180.332 325.24 183.132 324.12C186.072 323 188.802 321.95 191.322 320.97C192.442 320.55 193.562 320.06 194.682 319.5C195.942 318.8 197.062 318.17 198.042 317.61C198.322 317.33 198.952 316.91 199.932 316.35C200.912 315.79 201.542 315.51 201.822 315.51H202.242C203.502 315.51 204.132 316.49 204.132 318.45C203.852 320.55 203.082 323.28 201.822 326.64C200.702 329.72 199.372 332.73 197.832 335.67C196.432 338.61 195.592 340.43 195.312 341.13L189.432 354.57C195.312 348.55 200.772 342.81 205.812 337.35C210.852 331.75 215.612 326.29 220.092 320.97C222.752 317.75 226.042 316.14 229.962 316.14C230.662 316.14 231.432 316.21 232.272 316.35C233.252 316.35 234.022 316.49 234.582 316.77C235.282 317.05 235.422 317.4 235.002 317.82C234.722 318.1 234.372 318.31 233.952 318.45C231.712 319.01 229.402 320.9 227.022 324.12C224.642 327.34 222.402 331.19 220.302 335.67C218.342 340.01 216.732 344.35 215.472 348.69C214.212 352.89 213.442 356.25 213.162 358.77C213.162 358.91 213.092 359.12 212.952 359.4C212.952 359.54 212.952 359.75 212.952 360.03C215.192 357.23 217.432 354.64 219.672 352.26C221.912 349.74 224.152 347.29 226.392 344.91C228.912 342.25 231.502 339.73 234.162 337.35C236.822 334.83 239.482 332.24 242.142 329.58C242.842 328.74 243.612 328.18 244.452 327.9C245.432 327.48 246.412 327.2 247.392 327.06C248.652 326.78 249.842 326.57 250.962 326.43C252.082 326.15 253.132 325.73 254.112 325.17C255.092 324.47 255.722 324.19 256.002 324.33C256.422 324.47 256.632 324.61 256.632 324.75V325.17C256.632 326.01 256.072 326.92 254.952 327.9C253.272 329.44 251.522 331.89 249.702 335.25C247.882 338.47 246.202 342.04 244.662 345.96C243.262 349.74 242.072 353.24 241.092 356.46C239.272 362.76 238.362 368.01 238.362 372.21C238.362 377.95 240.322 380.82 244.242 380.82C246.342 380.82 248.582 379.63 250.962 377.25C253.482 374.87 255.442 372.98 256.842 371.58C256.982 371.58 257.052 371.65 257.052 371.79C257.192 371.79 257.192 371.79 257.052 371.79C256.632 373.61 254.392 376.48 250.332 380.4C248.372 382.36 246.272 383.83 244.032 384.81C241.792 385.93 240.112 386.49 238.992 386.49ZM294.719 373.89C290.799 373.89 288.839 370.88 288.839 364.86C288.839 361.08 289.399 357.51 290.519 354.15C291.639 350.65 292.689 347.15 293.669 343.65C291.429 346.03 289.259 348.34 287.159 350.58C285.199 352.82 283.029 355.06 280.649 357.3C278.409 359.4 276.099 361.5 273.719 363.6C271.339 365.56 268.959 367.31 266.579 368.85C262.239 371.65 258.949 373.05 256.709 373.05C254.469 373.05 253.349 371.72 253.349 369.06C253.349 365.98 254.539 361.85 256.919 356.67C258.319 353.59 260.209 350.23 262.589 346.59C265.109 342.95 267.699 339.38 270.359 335.88C272.879 332.8 275.819 329.65 279.179 326.43C282.679 323.21 286.459 320.48 290.519 318.24C294.579 316 298.639 314.88 302.699 314.88C305.919 314.88 308.579 315.65 310.679 317.19C312.919 318.59 314.039 320.9 314.039 324.12C314.039 327.48 313.409 329.51 312.149 330.21C311.729 330.63 311.449 330.77 311.309 330.63C311.169 330.49 311.099 330.42 311.099 330.42C310.959 329.02 310.329 327.62 309.209 326.22C308.089 324.68 306.689 323.63 305.009 323.07C303.189 322.51 301.159 322.23 298.919 322.23C293.739 322.23 288.839 323.77 284.219 326.85C279.739 329.79 275.889 333.29 272.669 337.35C270.009 340.85 267.839 344.49 266.159 348.27C264.619 351.91 263.849 355.13 263.849 357.93C263.849 362.13 264.969 364.23 267.209 364.23C268.609 364.23 270.149 363.6 271.829 362.34C273.509 361.08 274.909 359.96 276.029 358.98C280.089 355.34 283.869 351.35 287.369 347.01C291.009 342.53 293.529 339.38 294.929 337.56C295.209 337.28 295.979 336.86 297.239 336.3C298.639 335.6 300.109 335.04 301.649 334.62L306.059 333.57C306.899 333.57 307.319 333.64 307.319 333.78C306.479 334.9 305.289 337.21 303.749 340.71C302.349 344.21 301.089 347.99 299.969 352.05C298.849 355.97 298.289 359.33 298.289 362.13C298.289 364.37 298.709 365.84 299.549 366.54C299.969 366.96 300.529 367.17 301.229 367.17C302.349 367.17 303.539 366.82 304.799 366.12C306.059 365.28 307.389 364.37 308.789 363.39C313.689 359.75 318.309 355.27 322.649 349.95C327.129 344.63 330.909 339.87 333.989 335.67C333.989 335.67 334.129 335.81 334.409 336.09C334.689 336.79 334.689 337.35 334.409 337.77C332.589 340.15 330.699 342.67 328.739 345.33C326.779 347.85 324.819 350.37 322.859 352.89C320.759 355.27 318.589 357.65 316.349 360.03C314.249 362.27 312.009 364.37 309.629 366.33C306.829 368.57 304.099 370.39 301.439 371.79C298.919 373.19 296.679 373.89 294.719 373.89ZM347.178 372.42C344.938 372.14 343.328 371.23 342.348 369.69C341.368 368.15 340.878 366.33 340.878 364.23C340.878 361.29 341.438 358.07 342.558 354.57C343.818 350.93 345.148 347.57 346.548 344.49C348.088 341.41 349.278 339.1 350.118 337.56L353.688 331.68C351.868 332.38 350.258 332.73 348.858 332.73C345.498 332.73 343.048 331.05 341.508 327.69C340.948 328.39 340.318 329.3 339.618 330.42C338.918 331.54 338.428 332.38 338.148 332.94C336.048 335.88 333.528 339.31 330.588 343.23C327.648 347.01 324.708 350.65 321.768 354.15C318.828 357.51 316.168 360.17 313.788 362.13H313.578C313.438 362.13 313.298 361.92 313.158 361.5C313.018 361.08 313.088 360.73 313.368 360.45C315.328 358.49 317.288 356.39 319.248 354.15C321.208 351.77 323.028 349.46 324.708 347.22C326.248 345.26 327.998 342.88 329.958 340.08C331.918 337.28 333.738 334.48 335.418 331.68C337.098 328.74 338.288 326.22 338.988 324.12C338.848 323 338.918 321.25 339.198 318.87C339.478 316.35 340.668 313.06 342.768 309C343.608 307.18 345.078 306.27 347.178 306.27C348.578 306.27 349.908 306.69 351.168 307.53C352.568 308.23 353.478 309.14 353.898 310.26C351.378 312.36 349.208 314.6 347.388 316.98C346.688 317.96 345.918 319.29 345.078 320.97C344.238 322.51 343.818 324.05 343.818 325.59C343.818 326.57 344.098 327.48 344.658 328.32C345.218 329.02 346.338 329.37 348.018 329.37C350.258 329.37 352.498 328.81 354.738 327.69C357.118 326.57 359.288 325.66 361.248 324.96C362.228 324.68 363.138 324.4 363.978 324.12C364.818 323.84 365.588 323.7 366.288 323.7C368.248 323.7 369.158 324.75 369.018 326.85C365.938 329.93 363.138 333.36 360.618 337.14C358.098 340.78 355.858 344.63 353.898 348.69C353.478 349.67 352.848 351.21 352.008 353.31C351.168 355.27 350.398 357.37 349.698 359.61C349.138 361.71 348.858 363.6 348.858 365.28C348.858 367.94 349.768 369.27 351.588 369.27C352.288 369.27 353.128 369.13 354.108 368.85C355.228 368.43 356.488 367.73 357.888 366.75C361.108 364.51 364.398 361.64 367.758 358.14C371.118 354.5 374.198 350.86 376.998 347.22C379.938 343.44 382.318 340.22 384.138 337.56C384.418 337.28 384.698 337.14 384.978 337.14C385.258 337.14 385.468 337.42 385.608 337.98C385.888 338.54 385.748 339.17 385.188 339.87C380.848 346.03 376.508 351.56 372.168 356.46C367.828 361.22 363.628 365.07 359.568 368.01C357.188 369.83 354.878 371.09 352.638 371.79C350.538 372.35 348.718 372.56 347.178 372.42ZM373.858 371.79C373.858 371.37 373.998 370.95 374.278 370.53C374.558 370.11 374.768 369.76 374.908 369.48C375.328 368.5 375.748 367.31 376.168 365.91C376.728 364.51 377.498 362.9 378.478 361.08C379.598 358.98 380.788 356.39 382.048 353.31C383.448 350.23 384.778 347.15 386.038 344.07C387.298 340.85 388.348 338.33 389.188 336.51C389.468 335.53 389.748 334.62 390.028 333.78C390.448 332.94 390.728 332.1 390.868 331.26C391.008 330.7 391.078 330 391.078 329.16C391.078 327.76 390.728 326.64 390.028 325.8C389.328 324.96 387.998 324.54 386.038 324.54C384.638 324.54 383.028 324.89 381.208 325.59C379.528 326.15 377.988 326.78 376.588 327.48C376.588 327.2 376.658 326.78 376.798 326.22C377.078 325.66 377.358 325.31 377.638 325.17C378.198 324.89 379.948 324.26 382.888 323.28C385.828 322.16 388.558 321.11 391.078 320.13C393.178 319.29 395.348 318.17 397.588 316.77C397.868 316.63 398.498 316.28 399.478 315.72C400.598 315.16 401.298 314.88 401.578 314.88H401.998C403.118 314.88 403.678 315.65 403.678 317.19C403.678 318.17 403.468 319.43 403.048 320.97C402.768 322.51 402.278 324.19 401.578 326.01C400.318 329.09 398.918 332.1 397.378 335.04C395.978 337.98 395.138 339.8 394.858 340.5L388.978 353.73C394.858 347.85 400.318 342.18 405.358 336.72C410.398 331.26 415.228 325.87 419.848 320.55C422.648 317.33 426.148 315.72 430.348 315.72C432.028 315.72 433.428 316 434.548 316.56C435.248 316.84 435.388 317.12 434.968 317.4C434.688 317.68 434.268 317.89 433.708 318.03C431.748 318.59 429.438 320.48 426.778 323.7C424.118 326.92 421.598 330.77 419.218 335.25C416.978 339.59 415.228 343.79 413.968 347.85C412.848 351.49 412.288 354.85 412.288 357.93C412.288 359.89 412.638 361.5 413.338 362.76C414.038 364.02 415.158 364.65 416.698 364.65C418.938 364.65 421.878 363.39 425.518 360.87C427.478 359.47 429.928 357.23 432.868 354.15C435.808 350.93 438.678 347.57 441.478 344.07C444.278 340.57 446.518 337.77 448.198 335.67C448.198 335.67 448.338 335.81 448.618 336.09C448.898 336.79 448.828 337.35 448.408 337.77C447.428 339.17 446.168 340.92 444.628 343.02C443.088 345.12 441.338 347.36 439.378 349.74C437.418 351.98 435.318 354.29 433.078 356.67C430.978 359.05 428.878 361.08 426.778 362.76C424.818 364.44 422.648 365.84 420.268 366.96C417.888 368.08 415.578 368.64 413.338 368.64C410.118 368.64 407.878 367.66 406.618 365.7C405.358 363.6 404.728 361.15 404.728 358.35C404.728 355.97 405.008 353.52 405.568 351C406.268 348.48 406.968 346.1 407.668 343.86C408.368 341.76 409.698 338.82 411.658 335.04C407.318 338.54 403.118 342.11 399.058 345.75C395.138 349.39 391.988 353.03 389.608 356.67C388.628 358.07 387.718 359.82 386.878 361.92C386.038 364.02 385.338 366.05 384.778 368.01C384.638 368.43 384.078 368.85 383.098 369.27C382.258 369.55 381.278 369.83 380.158 370.11C379.178 370.25 378.128 370.46 377.008 370.74C375.888 371.02 374.838 371.44 373.858 372V371.79ZM471.702 373.89C467.782 373.89 465.822 370.88 465.822 364.86C465.822 361.08 466.382 357.51 467.502 354.15C468.622 350.65 469.672 347.15 470.652 343.65C468.412 346.03 466.242 348.34 464.142 350.58C462.182 352.82 460.012 355.06 457.632 357.3C455.392 359.4 453.082 361.5 450.702 363.6C448.322 365.56 445.942 367.31 443.562 368.85C439.222 371.65 435.932 373.05 433.692 373.05C431.452 373.05 430.332 371.72 430.332 369.06C430.332 365.98 431.522 361.85 433.902 356.67C435.302 353.59 437.192 350.23 439.572 346.59C442.092 342.95 444.682 339.38 447.342 335.88C449.862 332.8 452.802 329.65 456.162 326.43C459.662 323.21 463.442 320.48 467.502 318.24C471.562 316 475.622 314.88 479.682 314.88C482.902 314.88 485.562 315.65 487.662 317.19C489.902 318.59 491.022 320.9 491.022 324.12C491.022 327.48 490.392 329.51 489.132 330.21C488.712 330.63 488.432 330.77 488.292 330.63C488.152 330.49 488.082 330.42 488.082 330.42C487.942 329.02 487.312 327.62 486.192 326.22C485.072 324.68 483.672 323.63 481.992 323.07C480.172 322.51 478.142 322.23 475.902 322.23C470.722 322.23 465.822 323.77 461.202 326.85C456.722 329.79 452.872 333.29 449.652 337.35C446.992 340.85 444.822 344.49 443.142 348.27C441.602 351.91 440.832 355.13 440.832 357.93C440.832 362.13 441.952 364.23 444.192 364.23C445.592 364.23 447.132 363.6 448.812 362.34C450.492 361.08 451.892 359.96 453.012 358.98C457.072 355.34 460.852 351.35 464.352 347.01C467.992 342.53 470.512 339.38 471.912 337.56C472.192 337.28 472.962 336.86 474.222 336.3C475.622 335.6 477.092 335.04 478.632 334.62L483.042 333.57C483.882 333.57 484.302 333.64 484.302 333.78C483.462 334.9 482.272 337.21 480.732 340.71C479.332 344.21 478.072 347.99 476.952 352.05C475.832 355.97 475.272 359.33 475.272 362.13C475.272 364.37 475.692 365.84 476.532 366.54C476.952 366.96 477.512 367.17 478.212 367.17C479.332 367.17 480.522 366.82 481.782 366.12C483.042 365.28 484.372 364.37 485.772 363.39C490.672 359.75 495.292 355.27 499.632 349.95C504.112 344.63 507.892 339.87 510.972 335.67C510.972 335.67 511.112 335.81 511.392 336.09C511.672 336.79 511.672 337.35 511.392 337.77C509.572 340.15 507.682 342.67 505.722 345.33C503.762 347.85 501.802 350.37 499.842 352.89C497.742 355.27 495.572 357.65 493.332 360.03C491.232 362.27 488.992 364.37 486.612 366.33C483.812 368.57 481.082 370.39 478.422 371.79C475.902 373.19 473.662 373.89 471.702 373.89ZM512.611 372.21C508.831 372.21 506.171 371.3 504.631 369.48C503.091 367.66 502.321 365.28 502.321 362.34C502.321 360.8 502.461 359.19 502.741 357.51C503.161 355.83 503.651 354.08 504.211 352.26C504.911 349.74 505.751 347.29 506.731 344.91C507.851 342.39 509.041 339.94 510.301 337.56L518.071 322.65C518.211 322.37 518.351 322.09 518.491 321.81C518.771 321.53 518.981 321.25 519.121 320.97C518.281 321.11 517.441 321.39 516.601 321.81C515.761 322.09 514.991 322.37 514.291 322.65C513.311 323.07 512.261 323.49 511.141 323.91C510.161 324.19 509.321 324.47 508.621 324.75C508.201 324.89 507.641 324.96 506.941 324.96C505.961 324.96 505.471 324.61 505.471 323.91C505.471 322.79 506.031 321.6 507.151 320.34C508.411 319.08 509.531 318.38 510.511 318.24C512.051 317.96 513.801 317.54 515.761 316.98C517.861 316.42 519.891 315.93 521.851 315.51C523.811 311.87 525.561 308.16 527.101 304.38C528.781 300.6 530.041 296.75 530.881 292.83C531.161 292.13 531.301 291.5 531.301 290.94C531.301 290.24 531.301 289.61 531.301 289.05C531.301 287.23 530.881 286.04 530.041 285.48C529.341 284.78 528.431 284.43 527.311 284.43C526.331 284.43 525.141 284.64 523.741 285.06C522.341 285.48 521.081 286.04 519.961 286.74L520.171 286.32C520.171 285.34 520.381 284.85 520.801 284.85L531.721 280.44L538.231 277.29C539.351 276.73 540.331 276.24 541.171 275.82C542.011 275.4 542.501 275.19 542.641 275.19H542.851C544.251 275.19 544.951 276.17 544.951 278.13C544.951 279.53 544.531 281.28 543.691 283.38C541.591 288.56 539.141 293.74 536.341 298.92C533.681 304.1 530.951 309.28 528.151 314.46C530.391 314.18 532.421 314.04 534.241 314.04C536.201 314.04 538.091 314.11 539.911 314.25C541.871 314.39 543.271 315.09 544.111 316.35C545.091 317.47 545.581 318.66 545.581 319.92C545.581 320.48 545.441 321.18 545.161 322.02C545.021 322.58 544.811 322.86 544.531 322.86C543.691 322.86 543.411 322.3 543.691 321.18C544.391 319.5 544.181 318.31 543.061 317.61C541.941 316.91 540.401 316.56 538.441 316.56C537.881 316.56 537.251 316.63 536.551 316.77C535.851 316.77 535.151 316.84 534.451 316.98C532.911 317.12 531.371 317.4 529.831 317.82C528.291 318.24 526.961 318.59 525.841 318.87L521.011 328.11C520.451 329.09 519.541 330.91 518.281 333.57C517.161 336.09 515.901 339.03 514.501 342.39C513.241 345.75 512.121 349.11 511.141 352.47C510.301 355.69 509.881 358.56 509.881 361.08C509.881 363.88 510.721 365.84 512.401 366.96C513.381 367.52 514.431 367.8 515.551 367.8C518.211 367.8 521.011 366.75 523.951 364.65C526.891 362.41 529.621 359.96 532.141 357.3C534.661 354.5 536.551 352.4 537.811 351C538.091 350.72 539.071 349.6 540.751 347.64C542.431 345.68 544.181 343.58 546.001 341.34C547.961 338.96 549.361 337.14 550.201 335.88C550.201 335.88 550.341 336.02 550.621 336.3C550.901 336.86 550.831 337.42 550.411 337.98C548.731 340.22 546.911 342.6 544.951 345.12C543.131 347.5 541.241 349.88 539.281 352.26C537.321 354.78 534.871 357.65 531.931 360.87C529.131 363.95 526.051 366.61 522.691 368.85C519.471 371.09 516.111 372.21 512.611 372.21ZM532.676 377.46C532.676 377.18 532.746 376.76 532.886 376.2C533.166 375.78 533.376 375.43 533.516 375.15C533.936 374.31 534.426 373.19 534.986 371.79C535.546 370.39 536.176 368.71 536.876 366.75C538.976 361.43 540.866 356.46 542.546 351.84C544.366 347.08 546.606 341.13 549.266 333.99L556.406 315.72C552.486 315.02 549.826 313.83 548.426 312.15C547.166 310.33 546.536 308.72 546.536 307.32C546.536 306.62 546.676 305.85 546.956 305.01C547.236 304.17 547.586 303.68 548.006 303.54C548.426 303.26 548.776 303.12 549.056 303.12C549.476 303.12 549.686 303.26 549.686 303.54C549.686 303.82 549.476 304.24 549.056 304.8C548.776 305.36 548.636 305.99 548.636 306.69C548.636 307.81 548.986 308.79 549.686 309.63C550.246 310.33 551.156 310.96 552.416 311.52C553.676 312.08 554.796 312.36 555.776 312.36C557.176 312.36 557.946 312.01 558.086 311.31C562.986 299.69 568.446 288.56 574.466 277.92C580.626 267.28 588.396 258.04 597.776 250.2C603.796 245.3 609.396 241.73 614.576 239.49C619.896 237.11 624.516 235.92 628.436 235.92C633.336 235.92 637.186 237.39 639.986 240.33C642.926 243.13 644.396 246.98 644.396 251.88C644.396 255.52 643.486 259.65 641.666 264.27C639.846 268.75 636.976 273.58 633.056 278.76C627.456 286.04 620.736 292.2 612.896 297.24C605.056 302.28 596.866 306.27 588.326 309.21C579.786 312.01 571.666 313.97 563.966 315.09C562.426 319.29 560.606 324.12 558.506 329.58C556.546 334.9 554.726 339.94 553.046 344.7C551.366 349.46 550.106 353.1 549.266 355.62C554.866 349.88 560.186 344.28 565.226 338.82C570.406 333.36 575.166 328.04 579.506 322.86C582.166 319.78 585.386 318.24 589.166 318.24C589.866 318.24 590.636 318.31 591.476 318.45C592.456 318.59 593.226 318.8 593.786 319.08C594.486 319.36 594.696 319.64 594.416 319.92C594.136 320.2 593.716 320.41 593.156 320.55C592.456 320.69 591.476 321.32 590.216 322.44C589.096 323.42 587.696 325.31 586.016 328.11C583.076 332.45 580.556 337.07 578.456 341.97C576.356 346.73 574.886 351.77 574.046 357.09C573.906 357.93 573.766 358.77 573.626 359.61C573.626 360.45 573.626 361.22 573.626 361.92C573.626 364.02 573.976 365.63 574.676 366.75C575.516 367.87 576.776 368.22 578.456 367.8C580.556 367.1 582.796 365.77 585.176 363.81C587.556 361.71 589.866 359.47 592.106 357.09C594.346 354.71 596.166 352.68 597.566 351C597.846 350.72 598.756 349.6 600.296 347.64C601.976 345.68 603.726 343.58 605.546 341.34C607.506 338.96 608.906 337.21 609.746 336.09C610.026 335.81 610.166 335.88 610.166 336.3C610.446 337 610.376 337.56 609.956 337.98C608.276 340.22 606.526 342.6 604.706 345.12C602.886 347.5 600.996 349.88 599.036 352.26C596.236 355.62 593.226 358.91 590.006 362.13C586.926 365.21 583.566 367.87 579.926 370.11C576.706 371.93 574.046 372.84 571.946 372.84C570.686 372.84 569.566 372.56 568.586 372C567.186 371.16 566.136 369.97 565.436 368.43C564.876 366.75 564.596 364.93 564.596 362.97C564.596 358.91 565.436 354.43 567.116 349.53C568.796 344.63 570.406 340.57 571.946 337.35C567.186 341.13 563.196 344.42 559.976 347.22C558.296 348.76 556.686 350.37 555.146 352.05C553.606 353.59 552.136 355.2 550.736 356.88C549.196 358.98 547.866 361.57 546.746 364.65C545.626 367.73 544.856 370.25 544.436 372.21C543.036 373.05 541.146 373.96 538.766 374.94L532.676 377.67V377.46ZM564.806 312.36C572.646 311.1 580.626 308.72 588.746 305.22C596.866 301.58 604.496 297.1 611.636 291.78C618.916 286.32 625.006 280.3 629.906 273.72C633.826 268.4 636.626 263.78 638.306 259.86C639.986 255.8 640.826 252.37 640.826 249.57C640.826 246.21 639.776 243.69 637.676 242.01C635.576 240.33 632.846 239.49 629.486 239.49C625.286 239.49 620.596 240.75 615.416 243.27C610.236 245.65 605.266 249.29 600.506 254.19C595.606 259.23 590.776 265.25 586.016 272.25C581.396 279.25 577.196 286.32 573.416 293.46C569.636 300.46 566.766 306.76 564.806 312.36ZM674.936 374.94C673.956 374.94 673.886 374.24 674.726 372.84C675.146 372.14 676.196 370.67 677.876 368.43C679.556 366.19 682.146 365.07 685.646 365.07C686.766 365.07 687.886 365.14 689.006 365.28C690.266 365.42 691.596 365.49 692.996 365.49C695.656 365.49 697.406 365.21 698.246 364.65C699.086 363.95 700.206 362.76 701.606 361.08C701.886 360.66 702.726 358.84 704.126 355.62C705.666 352.4 707.556 348.2 709.796 343.02C712.036 337.84 714.486 332.17 717.146 326.01C719.806 319.85 722.396 313.69 724.916 307.53C727.576 301.37 730.026 295.63 732.266 290.31C734.646 284.85 736.536 280.37 737.936 276.87C735.976 276.17 733.316 275.4 729.956 274.56C726.596 273.72 722.956 273.02 719.036 272.46C715.256 271.76 711.616 271.41 708.116 271.41C706.296 271.41 704.546 271.55 702.866 271.83C701.326 271.97 699.996 272.32 698.876 272.88C689.496 277.22 684.806 283.59 684.806 291.99C684.806 295.07 685.436 298.43 686.696 302.07C687.956 305.71 689.496 309.21 691.316 312.57C693.136 315.79 695.166 319.08 697.406 322.44C697.686 323 697.616 323.42 697.196 323.7C696.776 323.98 696.426 323.84 696.146 323.28C693.906 319.92 691.526 316.63 689.006 313.41C686.486 310.05 684.316 306.62 682.496 303.12C680.816 299.48 679.976 295.63 679.976 291.57C679.976 290.87 679.976 290.17 679.976 289.47C680.116 288.63 680.256 287.79 680.396 286.95C681.936 278.69 685.366 272.81 690.686 269.31C696.146 265.81 702.936 263.85 711.056 263.43C713.716 263.29 716.936 263.5 720.716 264.06C724.636 264.62 728.486 265.32 732.266 266.16C736.046 267 739.056 267.84 741.296 268.68C744.096 262.52 747.456 257.69 751.376 254.19C755.436 250.55 760.476 248.73 766.496 248.73C767.476 248.73 768.526 248.94 769.646 249.36C770.766 249.78 771.536 250.41 771.956 251.25C772.096 251.39 772.166 251.6 772.166 251.88C772.166 252.44 771.816 252.79 771.116 252.93C770.556 253.07 770.136 252.86 769.856 252.3C769.856 252.16 769.506 251.95 768.806 251.67C768.246 251.39 767.476 251.25 766.496 251.25C762.996 251.25 759.986 252.3 757.466 254.4C754.946 256.36 752.846 258.88 751.166 261.96C749.626 264.9 748.296 267.84 747.176 270.78C753.336 272.88 759.426 275.82 765.446 279.6C771.466 283.24 776.996 287.58 782.036 292.62C787.076 297.52 791.066 303.05 794.006 309.21C797.086 315.23 798.626 321.74 798.626 328.74C798.626 334.9 796.806 340.71 793.166 346.17C789.526 351.49 784.416 356.18 777.836 360.24C771.396 364.3 763.906 367.52 755.366 369.9C746.826 372.14 737.656 373.33 727.856 373.47C720.296 373.61 712.736 373.4 705.176 372.84C697.616 372.42 690.266 372.14 683.126 372C679.346 372 676.756 372.91 675.356 374.73C675.216 374.87 675.076 374.94 674.936 374.94ZM729.746 369.69C741.506 369.55 751.866 367.8 760.826 364.44C769.786 360.94 776.786 356.32 781.826 350.58C787.006 344.7 789.596 338.05 789.596 330.63C789.596 325.03 788.196 319.5 785.396 314.04C782.736 308.44 779.166 303.26 774.686 298.5C770.206 293.6 765.306 289.4 759.986 285.9C754.666 282.4 749.416 279.95 744.236 278.55C738.216 292.83 733.036 304.87 728.696 314.67C724.496 324.47 720.996 332.52 718.196 338.82C715.536 345.12 713.366 350.16 711.686 353.94C710.006 357.58 708.676 360.38 707.696 362.34C706.716 364.3 705.876 365.84 705.176 366.96C706.296 367.1 708.186 367.45 710.846 368.01C713.646 368.43 716.726 368.85 720.086 369.27C723.446 369.55 726.666 369.69 729.746 369.69ZM796.201 377.46C796.201 377.18 796.271 376.76 796.411 376.2C796.691 375.78 796.901 375.43 797.041 375.15C797.461 374.31 797.951 373.19 798.511 371.79C799.071 370.39 799.701 368.71 800.401 366.75C802.501 361.43 804.391 356.46 806.071 351.84C807.891 347.08 810.131 341.13 812.791 333.99L819.931 315.72C816.011 315.02 813.351 313.83 811.951 312.15C810.691 310.33 810.061 308.72 810.061 307.32C810.061 306.62 810.201 305.85 810.481 305.01C810.761 304.17 811.111 303.68 811.531 303.54C811.951 303.26 812.301 303.12 812.581 303.12C813.001 303.12 813.211 303.26 813.211 303.54C813.211 303.82 813.001 304.24 812.581 304.8C812.301 305.36 812.161 305.99 812.161 306.69C812.161 307.81 812.511 308.79 813.211 309.63C813.771 310.33 814.681 310.96 815.941 311.52C817.201 312.08 818.321 312.36 819.301 312.36C820.701 312.36 821.471 312.01 821.611 311.31C826.511 299.69 831.971 288.56 837.991 277.92C844.151 267.28 851.921 258.04 861.301 250.2C867.321 245.3 872.921 241.73 878.101 239.49C883.421 237.11 888.041 235.92 891.961 235.92C896.861 235.92 900.711 237.39 903.511 240.33C906.451 243.13 907.921 246.98 907.921 251.88C907.921 255.52 907.011 259.65 905.191 264.27C903.371 268.75 900.501 273.58 896.581 278.76C890.981 286.04 884.261 292.2 876.421 297.24C868.581 302.28 860.391 306.27 851.851 309.21C843.311 312.01 835.191 313.97 827.491 315.09C825.951 319.29 824.131 324.12 822.031 329.58C820.071 334.9 818.251 339.94 816.571 344.7C814.891 349.46 813.631 353.1 812.791 355.62C818.391 349.88 823.711 344.28 828.751 338.82C833.931 333.36 838.691 328.04 843.031 322.86C845.691 319.78 848.911 318.24 852.691 318.24C853.391 318.24 854.161 318.31 855.001 318.45C855.981 318.59 856.751 318.8 857.311 319.08C858.011 319.36 858.221 319.64 857.941 319.92C857.661 320.2 857.241 320.41 856.681 320.55C855.981 320.69 855.001 321.32 853.741 322.44C852.621 323.42 851.221 325.31 849.541 328.11C846.601 332.45 844.081 337.07 841.981 341.97C839.881 346.73 838.411 351.77 837.571 357.09C837.431 357.93 837.291 358.77 837.151 359.61C837.151 360.45 837.151 361.22 837.151 361.92C837.151 364.02 837.501 365.63 838.201 366.75C839.041 367.87 840.301 368.22 841.981 367.8C844.081 367.1 846.321 365.77 848.701 363.81C851.081 361.71 853.391 359.47 855.631 357.09C857.871 354.71 859.691 352.68 861.091 351C861.371 350.72 862.281 349.6 863.821 347.64C865.501 345.68 867.251 343.58 869.071 341.34C871.031 338.96 872.431 337.21 873.271 336.09C873.551 335.81 873.691 335.88 873.691 336.3C873.971 337 873.901 337.56 873.481 337.98C871.801 340.22 870.051 342.6 868.231 345.12C866.411 347.5 864.521 349.88 862.561 352.26C859.761 355.62 856.751 358.91 853.531 362.13C850.451 365.21 847.091 367.87 843.451 370.11C840.231 371.93 837.571 372.84 835.471 372.84C834.211 372.84 833.091 372.56 832.111 372C830.711 371.16 829.661 369.97 828.961 368.43C828.401 366.75 828.121 364.93 828.121 362.97C828.121 358.91 828.961 354.43 830.641 349.53C832.321 344.63 833.931 340.57 835.471 337.35C830.711 341.13 826.721 344.42 823.501 347.22C821.821 348.76 820.211 350.37 818.671 352.05C817.131 353.59 815.661 355.2 814.261 356.88C812.721 358.98 811.391 361.57 810.271 364.65C809.151 367.73 808.381 370.25 807.961 372.21C806.561 373.05 804.671 373.96 802.291 374.94L796.201 377.67V377.46ZM828.331 312.36C836.171 311.1 844.151 308.72 852.271 305.22C860.391 301.58 868.021 297.1 875.161 291.78C882.441 286.32 888.531 280.3 893.431 273.72C897.351 268.4 900.151 263.78 901.831 259.86C903.511 255.8 904.351 252.37 904.351 249.57C904.351 246.21 903.301 243.69 901.201 242.01C899.101 240.33 896.371 239.49 893.011 239.49C888.811 239.49 884.121 240.75 878.941 243.27C873.761 245.65 868.791 249.29 864.031 254.19C859.131 259.23 854.301 265.25 849.541 272.25C844.921 279.25 840.721 286.32 836.941 293.46C833.161 300.46 830.291 306.76 828.331 312.36ZM901.239 383.13C898.159 383.13 895.989 381.52 894.729 378.3C893.469 375.22 892.839 371.58 892.839 367.38C892.839 362.9 893.259 358.49 894.099 354.15C895.079 349.67 895.919 346.45 896.619 344.49L883.389 357.51C881.149 359.61 878.839 361.64 876.459 363.6C874.079 365.56 871.699 367.31 869.319 368.85C864.979 371.51 861.619 372.84 859.239 372.84C856.439 372.84 855.039 371.3 855.039 368.22C855.039 364.86 856.439 360.94 859.239 356.46C859.659 355.9 860.849 354.22 862.809 351.42C864.909 348.62 867.289 345.26 869.949 341.34C872.609 337.42 874.989 333.57 877.089 329.79C878.209 328.11 879.189 326.01 880.029 323.49C881.009 320.83 881.499 318.59 881.499 316.77C881.499 314.11 880.519 312.78 878.559 312.78C877.299 312.78 875.759 313.27 873.939 314.25C873.799 314.39 873.659 314.18 873.519 313.62C873.519 313.06 873.799 312.71 874.359 312.57C875.619 311.73 877.369 310.96 879.609 310.26C881.849 309.56 883.739 309.42 885.279 309.84C887.239 310.4 888.639 311.31 889.479 312.57C890.319 313.69 890.739 315.02 890.739 316.56C890.739 319.22 889.759 322.16 887.799 325.38C885.979 328.46 884.439 330.91 883.179 332.73L873.099 346.38C871.419 348.62 869.949 350.86 868.689 353.1C867.569 355.34 866.659 357.37 865.959 359.19C865.819 359.75 865.679 360.24 865.539 360.66C865.539 361.08 865.539 361.5 865.539 361.92C865.539 363.74 866.519 364.65 868.479 364.65C870.439 364.65 872.679 363.6 875.199 361.5C878.139 359.26 881.219 356.39 884.439 352.89C887.799 349.25 890.809 345.82 893.469 342.6C896.129 339.24 897.949 336.93 898.929 335.67C899.909 334.27 901.659 333.15 904.179 332.31C906.699 331.47 908.869 331.05 910.689 331.05C911.949 331.05 912.719 331.19 912.999 331.47C910.339 334.27 907.959 338.19 905.859 343.23C903.899 348.27 902.289 353.52 901.029 358.98C899.909 364.44 899.349 369.13 899.349 373.05C899.349 375.71 899.629 377.81 900.189 379.35C900.889 381.03 901.939 381.66 903.339 381.24H903.549C903.969 381.24 904.179 381.45 904.179 381.87C904.179 382.71 903.199 383.13 901.239 383.13ZM977.274 386.49C971.814 386.49 969.084 382.71 969.084 375.15C969.084 372.63 969.364 369.69 969.924 366.33C970.484 362.83 971.394 358.84 972.654 354.36C973.074 352.54 973.914 349.74 975.174 345.96C976.574 342.04 977.764 338.75 978.744 336.09C975.804 338.33 972.444 341.2 968.664 344.7C964.884 348.06 961.314 351.42 957.954 354.78C954.734 358.14 952.284 360.8 950.604 362.76C949.484 364.3 948.924 364.79 948.924 364.23L946.614 365.91C945.634 366.47 944.724 366.75 943.884 366.75C943.184 366.75 942.834 366.4 942.834 365.7C942.834 364.58 943.044 362.76 943.464 360.24C944.024 357.72 944.654 354.85 945.354 351.63C946.054 348.41 946.824 345.4 947.664 342.6C948.644 339.66 949.554 337.35 950.394 335.67C944.234 340.57 938.704 345.61 933.804 350.79C929.044 355.97 925.684 361.92 923.724 368.64C923.584 369.2 923.024 369.69 922.044 370.11C921.204 370.39 920.224 370.67 919.104 370.95C918.124 371.09 917.074 371.37 915.954 371.79C914.834 372.07 913.784 372.42 912.804 372.84C912.804 372.56 912.944 372.14 913.224 371.58C913.504 371.02 913.714 370.6 913.854 370.32C914.274 369.48 914.694 368.36 915.114 366.96C915.674 365.42 916.444 363.74 917.424 361.92C918.684 359.54 919.874 356.88 920.994 353.94C922.254 351 923.304 348.48 924.144 346.38C924.984 344.14 925.404 343.02 925.404 343.02L927.924 337.35C928.204 336.37 928.484 335.46 928.764 334.62C929.184 333.78 929.464 332.94 929.604 332.1C929.744 331.54 929.814 330.84 929.814 330C929.814 328.6 929.464 327.48 928.764 326.64C928.204 325.8 926.944 325.38 924.984 325.38C923.444 325.38 921.764 325.73 919.944 326.43C918.264 327.13 916.654 327.83 915.114 328.53C915.254 328.25 915.394 327.83 915.534 327.27C915.814 326.71 916.024 326.36 916.164 326.22C916.864 325.94 918.614 325.24 921.414 324.12C924.354 323 927.084 321.95 929.604 320.97C930.724 320.55 931.844 320.06 932.964 319.5C934.224 318.8 935.344 318.17 936.324 317.61C936.604 317.33 937.234 316.91 938.214 316.35C939.194 315.79 939.824 315.51 940.104 315.51H940.524C941.784 315.51 942.414 316.49 942.414 318.45C942.134 320.55 941.364 323.28 940.104 326.64C938.984 329.72 937.654 332.73 936.114 335.67C934.714 338.61 933.874 340.43 933.594 341.13L927.714 354.57C933.594 348.55 939.054 342.81 944.094 337.35C949.134 331.75 953.894 326.29 958.374 320.97C961.034 317.75 964.324 316.14 968.244 316.14C968.944 316.14 969.714 316.21 970.554 316.35C971.534 316.35 972.304 316.49 972.864 316.77C973.564 317.05 973.704 317.4 973.284 317.82C973.004 318.1 972.654 318.31 972.234 318.45C969.994 319.01 967.684 320.9 965.304 324.12C962.924 327.34 960.684 331.19 958.584 335.67C956.624 340.01 955.014 344.35 953.754 348.69C952.494 352.89 951.724 356.25 951.444 358.77C951.444 358.91 951.374 359.12 951.234 359.4C951.234 359.54 951.234 359.75 951.234 360.03C953.474 357.23 955.714 354.64 957.954 352.26C960.194 349.74 962.434 347.29 964.674 344.91C967.194 342.25 969.784 339.73 972.444 337.35C975.104 334.83 977.764 332.24 980.424 329.58C981.124 328.74 981.894 328.18 982.734 327.9C983.714 327.48 984.694 327.2 985.674 327.06C986.934 326.78 988.124 326.57 989.244 326.43C990.364 326.15 991.414 325.73 992.394 325.17C993.374 324.47 994.004 324.19 994.284 324.33C994.704 324.47 994.914 324.61 994.914 324.75V325.17C994.914 326.01 994.354 326.92 993.234 327.9C991.554 329.44 989.804 331.89 987.984 335.25C986.164 338.47 984.484 342.04 982.944 345.96C981.544 349.74 980.354 353.24 979.374 356.46C977.554 362.76 976.644 368.01 976.644 372.21C976.644 377.95 978.604 380.82 982.524 380.82C984.624 380.82 986.864 379.63 989.244 377.25C991.764 374.87 993.724 372.98 995.124 371.58C995.264 371.58 995.334 371.65 995.334 371.79C995.474 371.79 995.474 371.79 995.334 371.79C994.914 373.61 992.674 376.48 988.614 380.4C986.654 382.36 984.554 383.83 982.314 384.81C980.074 385.93 978.394 386.49 977.274 386.49ZM1033 373.89C1029.08 373.89 1027.12 370.88 1027.12 364.86C1027.12 361.08 1027.68 357.51 1028.8 354.15C1029.92 350.65 1030.97 347.15 1031.95 343.65C1029.71 346.03 1027.54 348.34 1025.44 350.58C1023.48 352.82 1021.31 355.06 1018.93 357.3C1016.69 359.4 1014.38 361.5 1012 363.6C1009.62 365.56 1007.24 367.31 1004.86 368.85C1000.52 371.65 997.231 373.05 994.991 373.05C992.751 373.05 991.631 371.72 991.631 369.06C991.631 365.98 992.821 361.85 995.201 356.67C996.601 353.59 998.491 350.23 1000.87 346.59C1003.39 342.95 1005.98 339.38 1008.64 335.88C1011.16 332.8 1014.1 329.65 1017.46 326.43C1020.96 323.21 1024.74 320.48 1028.8 318.24C1032.86 316 1036.92 314.88 1040.98 314.88C1044.2 314.88 1046.86 315.65 1048.96 317.19C1051.2 318.59 1052.32 320.9 1052.32 324.12C1052.32 327.48 1051.69 329.51 1050.43 330.21C1050.01 330.63 1049.73 330.77 1049.59 330.63C1049.45 330.49 1049.38 330.42 1049.38 330.42C1049.24 329.02 1048.61 327.62 1047.49 326.22C1046.37 324.68 1044.97 323.63 1043.29 323.07C1041.47 322.51 1039.44 322.23 1037.2 322.23C1032.02 322.23 1027.12 323.77 1022.5 326.85C1018.02 329.79 1014.17 333.29 1010.95 337.35C1008.29 340.85 1006.12 344.49 1004.44 348.27C1002.9 351.91 1002.13 355.13 1002.13 357.93C1002.13 362.13 1003.25 364.23 1005.49 364.23C1006.89 364.23 1008.43 363.6 1010.11 362.34C1011.79 361.08 1013.19 359.96 1014.31 358.98C1018.37 355.34 1022.15 351.35 1025.65 347.01C1029.29 342.53 1031.81 339.38 1033.21 337.56C1033.49 337.28 1034.26 336.86 1035.52 336.3C1036.92 335.6 1038.39 335.04 1039.93 334.62L1044.34 333.57C1045.18 333.57 1045.6 333.64 1045.6 333.78C1044.76 334.9 1043.57 337.21 1042.03 340.71C1040.63 344.21 1039.37 347.99 1038.25 352.05C1037.13 355.97 1036.57 359.33 1036.57 362.13C1036.57 364.37 1036.99 365.84 1037.83 366.54C1038.25 366.96 1038.81 367.17 1039.51 367.17C1040.63 367.17 1041.82 366.82 1043.08 366.12C1044.34 365.28 1045.67 364.37 1047.07 363.39C1051.97 359.75 1056.59 355.27 1060.93 349.95C1065.41 344.63 1069.19 339.87 1072.27 335.67C1072.27 335.67 1072.41 335.81 1072.69 336.09C1072.97 336.79 1072.97 337.35 1072.69 337.77C1070.87 340.15 1068.98 342.67 1067.02 345.33C1065.06 347.85 1063.1 350.37 1061.14 352.89C1059.04 355.27 1056.87 357.65 1054.63 360.03C1052.53 362.27 1050.29 364.37 1047.91 366.33C1045.11 368.57 1042.38 370.39 1039.72 371.79C1037.2 373.19 1034.96 373.89 1033 373.89ZM1077.48 373.47C1073.14 373.47 1070.06 372 1068.24 369.06C1066.42 366.12 1065.51 362.48 1065.51 358.14C1065.51 355.62 1065.72 352.96 1066.14 350.16C1066.7 347.22 1067.33 344.28 1068.03 341.34C1069.01 337.14 1070.48 332.1 1072.44 326.22C1074.54 320.34 1076.85 314.11 1079.37 307.53C1082.03 300.95 1084.76 294.51 1087.56 288.21C1090.36 281.77 1093.09 275.89 1095.75 270.57C1098.55 265.25 1101.07 260.98 1103.31 257.76C1106.67 252.86 1110.1 249.36 1113.6 247.26C1117.24 245.02 1120.46 243.9 1123.26 243.9C1126.06 243.9 1128.3 244.81 1129.98 246.63C1131.8 248.31 1132.71 250.76 1132.71 253.98C1132.71 255.24 1132.5 256.64 1132.08 258.18C1130.82 264.06 1128.3 270.29 1124.52 276.87C1120.88 283.31 1116.61 289.75 1111.71 296.19C1106.81 302.63 1101.84 308.79 1096.8 314.67C1091.76 320.41 1087.21 325.45 1083.15 329.79C1079.79 333.43 1077.48 338.33 1076.22 344.49C1074.96 350.51 1074.33 355.97 1074.33 360.87C1074.33 364.23 1074.82 366.61 1075.8 368.01C1076.92 369.41 1078.39 370.11 1080.21 370.11C1081.47 370.11 1082.87 369.83 1084.41 369.27C1085.95 368.57 1087.49 367.73 1089.03 366.75C1094.77 363.25 1099.74 359.05 1103.94 354.15C1108.28 349.11 1112.34 343.93 1116.12 338.61C1116.12 338.47 1116.47 338.54 1117.17 338.82C1118.01 339.1 1118.29 339.38 1118.01 339.66C1113.81 345.26 1109.4 351 1104.78 356.88C1100.16 362.62 1094.56 367.17 1087.98 370.53C1084.06 372.49 1080.56 373.47 1077.48 373.47ZM1081.68 325.59C1081.68 326.15 1082.1 326.15 1082.94 325.59C1083.78 324.89 1085.11 323.42 1086.93 321.18C1088.05 319.92 1090.22 317.4 1093.44 313.62C1096.66 309.7 1100.3 305.08 1104.36 299.76C1108.56 294.3 1112.62 288.63 1116.54 282.75C1120.46 276.73 1123.68 270.92 1126.2 265.32C1128.58 260.42 1129.77 256.36 1129.77 253.14C1129.77 250.06 1128.51 248.52 1125.99 248.52C1124.03 248.52 1121.44 249.71 1118.22 252.09C1115.14 254.33 1112.2 257.69 1109.4 262.17C1105.9 267.77 1102.54 274.07 1099.32 281.07C1096.24 287.93 1093.37 294.86 1090.71 301.86C1088.05 308.72 1085.53 315.02 1083.15 320.76C1082.17 323.14 1081.68 324.75 1081.68 325.59Z" fill="white"/>
<g filter="url(#filter0_f_256_10)">
<path d="M-408.979 799.107C-421.141 700.056 20.7102 564.297 577.923 495.88C1135.14 427.463 1596.71 452.296 1608.87 551.346C1621.03 650.397 1179.18 786.156 621.965 854.573C64.7521 922.99 -396.817 898.157 -408.979 799.107Z" fill="white"/>
</g>
<g filter="url(#filter1_f_256_10)">
<path d="M-273.979 31.1067C-286.141 -67.9436 155.71 -203.703 712.923 -272.12C1270.14 -340.537 1731.71 -315.704 1743.87 -216.654C1756.03 -117.603 1314.18 18.1556 756.965 86.5728C199.752 154.99 -261.817 130.157 -273.979 31.1067Z" fill="white"/>
</g>
</g>
<defs>
<filter id="filter0_f_256_10" x="-558.424" y="308.035" width="2316.74" height="734.382" filterUnits="userSpaceOnUse" color-interpolation-filters="sRGB">
<feFlood flood-opacity="0" result="BackgroundImageFix"/>
<feBlend mode="normal" in="SourceGraphic" in2="BackgroundImageFix" result="shape"/>
<feGaussianBlur stdDeviation="74.6" result="effect1_foregroundBlur_256_10"/>
</filter>
<filter id="filter1_f_256_10" x="-423.424" y="-459.965" width="2316.74" height="734.382" filterUnits="userSpaceOnUse" color-interpolation-filters="sRGB">
<feFlood flood-opacity="0" result="BackgroundImageFix"/>
<feBlend mode="normal" in="SourceGraphic" in2="BackgroundImageFix" result="shape"/>
<feGaussianBlur stdDeviation="74.6" result="effect1_foregroundBlur_256_10"/>
</filter>
<linearGradient id="paint0_linear_256_10" x1="1.06994e-05" y1="43.5" x2="1200" y2="675" gradientUnits="userSpaceOnUse">
<stop stop-color="#C871BC" stop-opacity="0.9"/>
<stop offset="1" stop-color="#4338CA" stop-opacity="0.9"/>
</linearGradient>
<clipPath id="clip0_256_10">
<rect width="1200" height="675" fill="white"/>
</clipPath>
</defs>
</svg>
